<?xml version="1.0" encoding="utf-8"?>
<!-- Generator: Adobe Illustrator 18.0.0, SVG Export Plug-In . SVG Version: 6.00 Build 0)  -->
<!DOCTYPE svg PUBLIC "-//W3C//DTD SVG 1.1//EN" "http://www.w3.org/Graphics/SVG/1.1/DTD/svg11.dtd">
<svg version="1.1" id="Layer_1" xmlns="http://www.w3.org/2000/svg" xmlns:xlink="http://www.w3.org/1999/xlink" x="0px" y="0px"
	 viewBox="0 0 352.9 116.3" enable-background="new 0 0 352.9 116.3" xml:space="preserve">
<g>
	<path d="M42.6,55.7c-0.1,0.2-0.4,0.7-0.7,1.4c-0.4,0.7-0.8,1.6-1.4,2.5c-0.6,0.9-1.2,1.9-2,3c-0.7,1-1.6,2-2.5,2.8
		c-0.9,0.9-1.9,1.6-3,2.1c-1.1,0.6-2.2,0.8-3.4,0.8c-1.7,0-3.1-0.5-4.2-1.6c-1.1-1.1-2-2.4-2.5-4c-1,1.6-2.1,2.9-3.5,3.9
		c-1.4,1-2.7,1.4-4,1.4c-1.1,0-2-0.2-2.9-0.6c-0.9-0.4-1.6-0.9-2.2-1.6c-0.6-0.7-1.1-1.5-1.4-2.5c-0.3-0.9-0.5-2-0.5-3.1
		c0-2.2,0.4-4.2,1.1-5.9c0.8-1.7,1.7-3.1,2.9-4.3c1.2-1.1,2.5-2,3.9-2.6c1.4-0.6,2.8-0.9,4.1-0.9c0.9,0,1.7,0.1,2.5,0.4
		c0.7,0.2,1.4,0.5,1.9,0.8c0.5,0.3,0.9,0.6,1.2,0.8c0.3,0.2,0.4,0.4,0.5,0.4c0.3,0.4,0.5,0.8,0.5,1.2c0,0.4-0.2,0.8-0.5,1.1
		c-0.3,0.3-0.7,0.5-1.1,0.5c-0.5,0-0.8-0.2-1.2-0.5c-0.1-0.1-0.2-0.2-0.4-0.3c-0.2-0.2-0.5-0.3-0.8-0.5s-0.8-0.3-1.2-0.5
		c-0.5-0.1-1-0.2-1.6-0.2c-0.9,0-1.8,0.2-2.8,0.6c-1,0.4-1.9,1-2.8,1.9c-0.8,0.8-1.5,1.9-2.1,3.2s-0.8,2.8-0.8,4.5
		c0,0.5,0.1,1.1,0.2,1.7c0.1,0.6,0.3,1.1,0.6,1.5c0.3,0.5,0.7,0.8,1.2,1.1c0.5,0.3,1.1,0.4,1.8,0.4c0.5,0,1.1-0.2,1.8-0.5
		c0.7-0.3,1.3-0.9,1.9-1.6c0.6-0.7,1.2-1.6,1.7-2.7c0.5-1.1,0.9-2.4,1.1-3.9c0.1-0.4,0.2-0.7,0.6-1c0.3-0.3,0.7-0.4,1.1-0.4
		c0.4,0,0.8,0.2,1.1,0.5c0.3,0.3,0.5,0.7,0.5,1.1c0,0.5,0.1,1.3,0.2,2.3c0.1,1,0.3,2,0.6,3c0.3,1,0.8,1.8,1.4,2.5
		c0.6,0.7,1.4,1.1,2.5,1.1c0.7,0,1.4-0.2,2-0.6s1.3-0.9,2-1.5c0.6-0.6,1.3-1.3,1.9-2.1c0.6-0.8,1.1-1.6,1.6-2.4
		c0.5-0.8,0.9-1.6,1.3-2.3c0.4-0.7,0.7-1.4,0.9-1.9c0.1-0.3,0.4-0.6,0.6-0.7c0.3-0.2,0.6-0.3,0.9-0.3c0.5,0,0.9,0.2,1.2,0.5
		c0.3,0.4,0.5,0.7,0.5,1.1C42.7,55.3,42.6,55.5,42.6,55.7z"/>
	<path d="M49.1,63.8c0.5-0.9,1-2,1.6-3.1c0.6-1.1,1.2-2.3,1.9-3.4c0.7-1.2,1.4-2.3,2.2-3.5c0.8-1.1,1.6-2.2,2.4-3.3
		c0.8-1,1.7-1.7,2.5-2.2s1.6-0.7,2.4-0.7c1.5,0,2.6,0.5,3.3,1.6c0.7,1.1,1.1,2.4,1.1,4.1c0,0.4,0,0.8-0.1,1.4c0,0.5-0.1,1.1-0.1,1.7
		s-0.1,1.2-0.1,1.8c0,0.6-0.1,1.2-0.1,1.7c0,0.7,0,1.4,0.1,2c0.1,0.6,0.2,1.2,0.4,1.7c0.2,0.5,0.5,0.8,0.9,1.1
		c0.4,0.3,0.9,0.4,1.5,0.4c1.1,0,2.2-0.4,3.2-1.3c1-0.8,2-1.9,2.9-3s1.6-2.3,2.3-3.6c0.6-1.2,1.1-2.2,1.4-2.9
		c0.1-0.3,0.4-0.6,0.6-0.7c0.3-0.2,0.6-0.3,0.9-0.3c0.5,0,0.9,0.2,1.2,0.5c0.3,0.4,0.5,0.7,0.5,1.1c0,0.2,0,0.4-0.1,0.6
		c-0.1,0.2-0.3,0.7-0.7,1.4s-0.8,1.5-1.4,2.5c-0.6,0.9-1.2,1.9-2,3c-0.7,1-1.6,2-2.5,2.9c-0.9,0.9-1.9,1.6-2.9,2.2
		c-1,0.6-2.1,0.9-3.3,0.9c-1.3,0-2.3-0.3-3.1-0.8c-0.8-0.5-1.4-1.2-1.9-2c-0.5-0.8-0.8-1.7-0.9-2.7c-0.2-1-0.2-2-0.2-3
		c0-0.4,0-0.9,0.1-1.5c0-0.5,0.1-1.1,0.2-1.7c0.1-0.6,0.1-1.2,0.2-1.8c0-0.6,0.1-1.2,0.1-1.7c0-0.9-0.1-1.5-0.4-1.9
		c-0.3-0.3-0.5-0.5-0.8-0.5c-0.5,0-1,0.3-1.6,0.8c-0.6,0.5-1.2,1.2-1.9,2.1c-0.6,0.9-1.3,1.8-2,2.9s-1.3,2.1-1.9,3.2
		c-0.6,1.1-1.1,2.1-1.6,3c-0.5,1-0.9,1.8-1.2,2.4c-0.6,1.2-1.1,2-1.7,2.4c-0.6,0.4-1.2,0.6-1.8,0.6c-0.8,0-1.5-0.3-2-0.8
		c-0.5-0.5-0.8-1.2-0.8-2.1c0-0.2,0-0.6,0.1-1.2c0.1-0.6,0.1-1.3,0.2-2.1c0.1-0.8,0.2-1.7,0.3-2.6c0.1-0.9,0.2-1.9,0.3-2.8
		c0.1-0.9,0.2-1.8,0.2-2.6c0.1-0.8,0.1-1.5,0.1-2c0-0.7,0-1.4-0.1-2.1c-0.1-0.7-0.2-1.1-0.3-1.2c-0.3,0.1-0.7,0.6-1.4,1.6
		c-0.7,1-1.5,2.7-2.5,5.2c-0.1,0.3-0.4,0.6-0.6,0.7c-0.3,0.2-0.6,0.3-0.9,0.3c-0.5,0-0.9-0.2-1.2-0.5c-0.3-0.3-0.4-0.7-0.4-1.1
		c0-0.2,0-0.4,0.1-0.6c1.3-3.1,2.5-5.3,3.6-6.8c1.1-1.5,2.3-2.2,3.4-2.2c0.7,0,1.2,0.2,1.7,0.5c0.5,0.3,0.8,0.8,1.1,1.3
		c0.3,0.5,0.5,1.1,0.6,1.8s0.2,1.3,0.2,2c0,0.5,0,1.3-0.1,2.4s-0.2,2.3-0.3,3.5c-0.1,1.2-0.2,2.5-0.3,3.7
		C49.3,61.9,49.2,63,49.1,63.8z"/>
	<path d="M95.5,55.2c1.4,6.6,3.4,10,6.1,10c1,0,2-0.4,3-1.1c0.9-0.8,1.8-1.7,2.6-2.8s1.5-2.3,2.2-3.5c0.6-1.2,1.1-2.3,1.6-3.2
		c0.3-0.7,0.8-1,1.5-1c0.5,0,0.8,0.2,1.2,0.5s0.5,0.7,0.5,1.1c0,0.2,0,0.4-0.1,0.6c-0.2,0.5-0.5,1.1-0.9,2s-0.9,1.7-1.4,2.6
		c-0.6,0.9-1.2,1.9-1.9,2.9s-1.5,1.9-2.3,2.6s-1.7,1.4-2.6,1.9c-0.9,0.5-1.9,0.8-3,0.8c-1.9,0-3.6-0.7-5-2c-1.4-1.3-2.6-3.5-3.6-6.6
		c-1.4,2.9-2.8,5.1-4.2,6.4s-2.9,2-4.6,2c-0.9,0-1.7-0.1-2.5-0.4s-1.5-0.7-2.1-1.4c-0.6-0.6-1.1-1.4-1.5-2.4c-0.4-1-0.6-2.2-0.6-3.6
		c0-2,0.3-3.8,1-5.5s1.6-3.1,2.7-4.3c1.1-1.2,2.3-2.1,3.6-2.8c1.3-0.7,2.7-1,4-1c0.4,0,0.8,0.2,1.1,0.5c0.3,0.3,0.5,0.7,0.5,1.1
		c0,0.4-0.1,0.8-0.4,1.1c-0.3,0.3-0.6,0.5-1,0.6c-0.9,0.1-1.8,0.4-2.8,0.8c-1,0.4-1.9,1.1-2.7,1.9c-0.8,0.8-1.5,1.9-2,3.1
		c-0.5,1.3-0.8,2.8-0.8,4.5c0,1.4,0.3,2.6,0.9,3.4c0.6,0.8,1.4,1.2,2.6,1.2c0.5,0,0.9-0.1,1.5-0.4s1.1-0.7,1.7-1.4s1.2-1.7,1.9-3.1
		c0.7-1.3,1.5-3.1,2.3-5.2c-0.5-2.5-0.9-5.4-1.3-8.7s-0.6-7-0.6-11.1c0-1.8,0.1-3.6,0.2-5.6c0.1-1.9,0.3-3.8,0.6-5.7
		c0.3-1.9,0.6-3.6,1-5.3c0.4-1.7,1-3.1,1.6-4.4c0.6-1.3,1.3-2.3,2.2-3s1.8-1.1,2.8-1.1c0.9,0,1.8,0.3,2.4,0.8
		c0.7,0.5,1.2,1.2,1.6,2.2c0.4,0.9,0.7,2,0.9,3.3c0.2,1.3,0.3,2.7,0.3,4.3c0,3.3-0.3,6.7-0.9,10c-0.6,3.3-1.3,6.5-2.1,9.6
		c-0.8,3-1.7,5.9-2.7,8.4C97.2,51.1,96.3,53.3,95.5,55.2z M100.6,20.4c0-0.7,0-1.5-0.1-2.3s-0.1-1.6-0.3-2.3s-0.4-1.3-0.6-1.8
		c-0.3-0.5-0.6-0.7-1-0.7c-0.7,0-1.4,0.6-2,1.9c-0.6,1.3-1.2,2.9-1.6,5c-0.5,2.1-0.8,4.4-1.1,7c-0.3,2.6-0.4,5.2-0.4,7.9
		c0,2.5,0.1,5.1,0.3,7.6s0.4,4.8,0.7,6.8c0.8-2.2,1.6-4.5,2.4-6.8c0.7-2.3,1.4-4.7,2-7.2c0.6-2.4,1-4.9,1.3-7.4
		C100.4,25.4,100.6,22.9,100.6,20.4z"/>
	<path d="M153.2,69.8c2.1-0.9,4.1-2,5.8-3.3c1.7-1.2,3.3-2.5,4.7-3.9s2.5-2.8,3.5-4.2c1-1.4,1.7-2.8,2.3-4.1
		c0.3-0.6,0.7-0.9,1.5-0.9c0.5,0,0.9,0.2,1.2,0.5c0.3,0.3,0.5,0.7,0.5,1.1c0,0.2,0,0.4-0.1,0.6c-0.6,1.4-1.4,2.9-2.4,4.4
		s-2.2,3-3.6,4.4c-1.4,1.5-3,2.9-4.9,4.2c-1.9,1.3-4,2.6-6.4,3.7c1.6,1.6,2.9,3.4,4,5.4c1.1,2,2.1,4,2.9,6.1
		c0.8,2.1,1.3,4.3,1.7,6.4c0.4,2.2,0.6,4.2,0.6,6.2c0,1.8-0.2,3.5-0.5,5.1c-0.3,1.6-0.8,3-1.5,4.2c-0.6,1.2-1.4,2.1-2.3,2.8
		c-0.9,0.7-2,1-3.1,1c-1.7,0-3.1-0.6-4-1.9c-0.9-1.3-1.6-3-2.1-5.3c-0.4-2.3-0.7-4.9-0.8-8c-0.1-3.1-0.1-6.4-0.1-10
		c0-1.8,0-3.9,0-6.2s0-4.9,0-7.6c0-2.7,0-5.6,0-8.5c0-3,0-6,0.1-8.9c0-3,0.1-5.9,0.1-8.8c0-2.9,0.1-5.6,0.1-8.2
		c0.1-4.9,0.3-9.3,0.5-13.2s0.7-7.2,1.2-9.8c0.6-2.7,1.4-4.7,2.3-6.1c1-1.4,2.2-2.1,3.8-2.1c1.2,0,2.2,0.3,3.1,1
		c0.8,0.7,1.5,1.6,2,2.7c0.5,1.1,0.9,2.5,1.1,4c0.2,1.5,0.3,3.1,0.3,4.8c0,3.5-0.3,6.9-0.9,10.2c-0.6,3.3-1.4,6.4-2.5,9.5
		s-2.2,6.1-3.6,9c-1.4,2.9-2.9,5.8-4.5,8.7c0,1.2,0,2.4,0,3.8s0,2.7,0,4.1s0,2.7,0,3.9S153.2,68.9,153.2,69.8z M153.2,75.1
		c0,1.8,0,3.5,0,5.1s0,3,0,4.3c0,2.7,0,5.3,0,7.9c0,2.6,0.2,5,0.4,7c0.2,2.1,0.6,3.8,1.1,5c0.5,1.3,1.2,1.9,2.2,1.9
		c0.9,0,1.6-0.4,2.1-1.2c0.5-0.8,1-1.7,1.3-2.8c0.3-1.1,0.5-2.1,0.6-3.3c0.1-1.1,0.2-2,0.2-2.7c0-1.8-0.2-3.6-0.5-5.5
		c-0.3-1.9-0.8-3.8-1.5-5.7c-0.7-1.9-1.5-3.7-2.5-5.5S154.5,76.5,153.2,75.1z M153.3,48.1c1.2-2.2,2.3-4.5,3.3-7
		c1-2.5,1.8-5,2.6-7.6c0.7-2.6,1.3-5.3,1.7-8c0.4-2.7,0.6-5.5,0.6-8.2c0-1.4-0.1-2.6-0.2-3.7c-0.1-1.1-0.3-2.1-0.6-2.9
		c-0.3-0.8-0.6-1.4-1-1.9c-0.4-0.4-0.9-0.7-1.4-0.7c-0.6,0-1.1,0.3-1.5,1c-0.4,0.7-0.8,1.6-1.1,2.8c-0.3,1.1-0.6,2.5-0.8,4
		c-0.2,1.5-0.4,3.1-0.5,4.7c-0.1,1.6-0.3,3.2-0.3,4.9s-0.2,3.1-0.2,4.6c0,1.4-0.1,2.7-0.1,3.8c0,1.1,0,1.9,0,2.5
		c0,1.1,0,2.2-0.1,3.1c0,0.9,0,1.8-0.1,2.6c0,0.9-0.1,1.8-0.1,2.8C153.3,45.6,153.3,46.8,153.3,48.1z"/>
	<path d="M173.9,50c-0.1,0.8-0.3,1.5-0.4,2.2c-0.2,0.7-0.3,1.3-0.5,1.8c-0.2,0.5-0.3,0.9-0.4,1.2c-0.1,0.3-0.2,0.5-0.2,0.5
		c-0.3,0.7-0.8,1-1.5,1c-0.4,0-0.8-0.2-1.1-0.5c-0.3-0.3-0.5-0.7-0.5-1.1c0-0.2,0-0.3,0.1-0.4c0.1-0.1,0.1-0.3,0.3-0.5
		c0.1-0.3,0.3-0.7,0.4-1.3c0.2-0.6,0.4-1.5,0.6-2.8c-0.5,0-1,0-1.5,0c-0.5,0-1-0.1-1.4-0.3c-0.4-0.2-0.8-0.4-1.1-0.8
		c-0.3-0.4-0.4-0.9-0.4-1.6c0-0.5,0.1-1.1,0.4-2c0.3-0.8,0.6-1.7,1.1-2.5c0.5-0.8,1-1.5,1.6-2.1c0.6-0.6,1.1-0.9,1.7-0.9
		c0.7,0,1.2,0.2,1.6,0.7c0.4,0.5,0.7,1.1,1,1.8c0.2,0.7,0.4,1.4,0.5,2.2c0.1,0.8,0.2,1.5,0.2,2c0.5,0,1,0,1.4,0c0.5,0,0.9,0,1.4,0
		c1.6,0,2.9,0.4,3.7,1.1c0.9,0.7,1.3,1.9,1.3,3.5c0,0.7,0,1.4-0.1,2.1c-0.1,0.7-0.2,1.5-0.3,2.2c-0.1,0.8-0.2,1.5-0.3,2.3
		s-0.1,1.5-0.1,2.2c0,1,0.1,1.9,0.4,2.6c0.3,0.7,0.6,1.2,1.1,1.6s0.9,0.7,1.4,0.8c0.5,0.2,0.9,0.2,1.3,0.2c1.2,0,2.4-0.4,3.5-1.2
		c1.1-0.8,2.1-1.8,3-2.9s1.7-2.3,2.5-3.6c0.7-1.3,1.3-2.4,1.8-3.3c0.1-0.3,0.3-0.5,0.6-0.6c0.3-0.1,0.5-0.2,0.8-0.2
		c0.5,0,0.9,0.2,1.2,0.5c0.3,0.3,0.4,0.7,0.4,1.1c0,0.3-0.1,0.5-0.2,0.8c-0.7,1.2-1.4,2.5-2.3,4c-0.9,1.5-1.9,2.9-3,4.2
		s-2.4,2.4-3.8,3.3c-1.4,0.9-2.9,1.3-4.6,1.3c-1,0-2-0.2-2.9-0.6s-1.7-0.9-2.4-1.7s-1.2-1.6-1.6-2.7c-0.4-1.1-0.6-2.3-0.6-3.6
		c0-1.4,0.1-2.9,0.4-4.3s0.4-2.8,0.4-4.1c0-0.5-0.1-1-0.4-1.2s-0.8-0.4-1.6-0.4c-0.4,0-0.8,0-1.3,0C175,49.9,174.5,50,173.9,50z
		 M171.1,46.8c0-0.2,0-0.5,0-0.8c0-0.3,0-0.7-0.1-1c0-0.3-0.1-0.6-0.2-0.8c-0.1-0.2-0.2-0.3-0.2-0.3c-0.1,0-0.2,0.1-0.3,0.3
		c-0.1,0.2-0.3,0.5-0.4,0.8c-0.1,0.3-0.3,0.6-0.4,1s-0.2,0.6-0.3,0.9H171.1z"/>
	<path d="M203.2,33.9c0,1.1-0.4,2-1.1,2.8c-0.8,0.8-1.7,1.1-2.8,1.1c-1.1,0-2-0.4-2.8-1.1c-0.8-0.8-1.1-1.7-1.1-2.8
		c0-0.5,0.1-1.1,0.3-1.5c0.2-0.5,0.5-0.9,0.8-1.2c0.4-0.4,0.8-0.6,1.2-0.8c0.5-0.2,1-0.3,1.5-0.3c0.5,0,1.1,0.1,1.5,0.3
		c0.5,0.2,0.9,0.5,1.2,0.8c0.4,0.4,0.6,0.8,0.8,1.2C203.1,32.8,203.2,33.3,203.2,33.9z M196.2,59.1c0-4.1,0.3-8.3,0.8-12.4
		c0.1-0.4,0.2-0.8,0.5-1.1c0.3-0.3,0.7-0.5,1.2-0.5c0.4,0,0.8,0.2,1.1,0.5c0.3,0.3,0.4,0.7,0.4,1.1c0,0.2,0,0.7-0.1,1.6
		c-0.1,0.9-0.2,1.9-0.3,3.1c-0.1,1.2-0.2,2.5-0.3,3.8c-0.1,1.3-0.1,2.6-0.1,3.7c0,1.5,0.2,2.8,0.5,3.7c0.3,0.9,0.7,1.7,1.2,2.2
		c0.5,0.5,1,0.9,1.5,1c0.5,0.2,1,0.3,1.5,0.3c0.8,0,1.6-0.3,2.5-0.9c0.9-0.6,1.7-1.4,2.6-2.4c0.9-1,1.8-2.3,2.7-3.7
		c0.9-1.5,1.8-3.1,2.7-4.8c0.1-0.3,0.3-0.5,0.6-0.7c0.3-0.2,0.5-0.2,0.9-0.2c0.5,0,0.8,0.2,1.1,0.5s0.5,0.7,0.5,1.1
		c0,0.3-0.1,0.5-0.2,0.7c-0.3,0.7-0.8,1.5-1.3,2.4c-0.5,0.9-1.1,1.9-1.8,2.9c-0.7,1-1.4,2-2.2,3c-0.8,1-1.6,1.9-2.5,2.7
		c-0.9,0.8-1.8,1.4-2.8,1.9c-1,0.5-2,0.7-3,0.7c-1.3,0-2.4-0.3-3.4-0.8s-1.8-1.3-2.5-2.2c-0.7-0.9-1.2-2-1.5-3.3
		C196.4,61.9,196.2,60.6,196.2,59.1z M200.8,33.9c0-0.4-0.2-0.8-0.5-1.1c-0.3-0.3-0.7-0.5-1.1-0.5c-0.4,0-0.7,0.2-1,0.5
		s-0.4,0.7-0.4,1.1c0,0.4,0.1,0.7,0.4,1c0.3,0.3,0.6,0.4,1,0.4c0.4,0,0.8-0.1,1.1-0.4C200.6,34.6,200.8,34.3,200.8,33.9z"/>
	<path d="M219.9,63c0.6,0.8,1.4,1.5,2.3,2c0.9,0.5,2.1,0.8,3.5,0.8c1.4,0,2.7-0.3,3.8-1c1.1-0.7,2.2-1.6,3.1-2.6
		c0.9-1.1,1.8-2.3,2.5-3.7c0.7-1.3,1.4-2.7,2-4c0.1-0.3,0.3-0.6,0.6-0.7c0.3-0.2,0.5-0.2,0.9-0.2c0.5,0,0.9,0.2,1.2,0.5
		c0.3,0.3,0.5,0.7,0.5,1.1c0,0.1,0,0.3,0,0.4c0,0.1-0.1,0.2-0.1,0.3c-2,4.4-4.1,7.7-6.5,9.9c-2.3,2.2-5,3.3-7.9,3.4
		c-1.9,0-3.5-0.4-4.9-1.1c-1.4-0.7-2.5-1.7-3.4-2.8c-0.9-1.2-1.6-2.5-2-3.9c-0.4-1.5-0.6-2.9-0.6-4.4s0.2-2.8,0.5-4.1
		c0.4-1.2,0.9-2.3,1.6-3.2c0.7-0.9,1.5-1.6,2.4-2.2c0.9-0.5,2-0.8,3.1-0.8c0.7,0,1.3,0.1,2,0.4c0.6,0.3,1.2,0.7,1.7,1.2
		c0.5,0.5,0.9,1.1,1.2,1.8c0.3,0.7,0.5,1.5,0.5,2.5c0,1.2-0.2,2.3-0.6,3.3c-0.4,1-1,2-1.7,2.9S224,60.3,223,61
		C222,61.8,221,62.4,219.9,63z M218.6,60.2c0.9-0.4,1.7-0.8,2.4-1.4c0.7-0.6,1.4-1.2,1.9-1.9c0.5-0.7,0.9-1.4,1.2-2.2
		c0.3-0.8,0.4-1.5,0.4-2.3c0-0.9-0.2-1.5-0.6-2c-0.4-0.4-0.9-0.7-1.5-0.7c-0.8,0-1.4,0.2-2,0.6c-0.5,0.4-1,1-1.3,1.7
		c-0.3,0.7-0.6,1.5-0.8,2.3c-0.2,0.8-0.2,1.7-0.2,2.5c0,0.5,0,1.1,0.2,1.6C218.3,59.1,218.4,59.6,218.6,60.2z"/>
	<path d="M246.8,63.8c0.5-0.9,1-2,1.6-3.1c0.6-1.1,1.2-2.3,1.9-3.4s1.4-2.3,2.2-3.5c0.8-1.1,1.6-2.2,2.4-3.3c0.8-1,1.7-1.7,2.5-2.2
		c0.8-0.4,1.6-0.7,2.4-0.7c1.5,0,2.6,0.5,3.3,1.6c0.7,1.1,1.1,2.4,1.1,4.1c0,0.4,0,0.8-0.1,1.4c0,0.5-0.1,1.1-0.1,1.7
		s-0.1,1.2-0.1,1.8c0,0.6-0.1,1.2-0.1,1.7c0,0.7,0,1.4,0.1,2c0.1,0.6,0.2,1.2,0.4,1.7c0.2,0.5,0.5,0.8,0.9,1.1
		c0.4,0.3,0.9,0.4,1.5,0.4c1.1,0,2.2-0.4,3.2-1.3c1-0.8,2-1.9,2.9-3s1.6-2.3,2.3-3.6c0.6-1.2,1.1-2.2,1.4-2.9
		c0.1-0.3,0.4-0.6,0.6-0.7c0.3-0.2,0.6-0.3,0.9-0.3c0.5,0,0.9,0.2,1.2,0.5c0.3,0.4,0.5,0.7,0.5,1.1c0,0.2,0,0.4-0.1,0.6
		c-0.1,0.2-0.3,0.7-0.7,1.4s-0.8,1.5-1.4,2.5c-0.6,0.9-1.2,1.9-2,3c-0.7,1-1.6,2-2.5,2.9c-0.9,0.9-1.9,1.6-2.9,2.2
		c-1,0.6-2.1,0.9-3.3,0.9c-1.3,0-2.3-0.3-3.1-0.8c-0.8-0.5-1.4-1.2-1.9-2c-0.5-0.8-0.8-1.7-0.9-2.7c-0.2-1-0.2-2-0.2-3
		c0-0.4,0-0.9,0.1-1.5s0.1-1.1,0.2-1.7c0.1-0.6,0.1-1.2,0.2-1.8c0-0.6,0.1-1.2,0.1-1.7c0-0.9-0.1-1.5-0.4-1.9
		c-0.3-0.3-0.5-0.5-0.8-0.5c-0.5,0-1,0.3-1.6,0.8c-0.6,0.5-1.2,1.2-1.9,2.1c-0.6,0.9-1.3,1.8-2,2.9s-1.3,2.1-1.9,3.2
		c-0.6,1.1-1.1,2.1-1.6,3c-0.5,1-0.9,1.8-1.2,2.4c-0.6,1.2-1.1,2-1.7,2.4c-0.6,0.4-1.2,0.6-1.8,0.6c-0.8,0-1.5-0.3-2-0.8
		c-0.5-0.5-0.8-1.2-0.8-2.1c0-0.2,0-0.6,0.1-1.2c0.1-0.6,0.1-1.3,0.2-2.1c0.1-0.8,0.2-1.7,0.3-2.6c0.1-0.9,0.2-1.9,0.3-2.8
		s0.2-1.8,0.2-2.6c0.1-0.8,0.1-1.5,0.1-2c0-0.7,0-1.4-0.1-2.1c-0.1-0.7-0.2-1.1-0.3-1.2c-0.3,0.1-0.7,0.6-1.4,1.6
		c-0.7,1-1.5,2.7-2.5,5.2c-0.1,0.3-0.4,0.6-0.6,0.7c-0.3,0.2-0.6,0.3-0.9,0.3c-0.5,0-0.9-0.2-1.2-0.5c-0.3-0.3-0.4-0.7-0.4-1.1
		c0-0.2,0-0.4,0.1-0.6c1.3-3.1,2.5-5.3,3.6-6.8c1.1-1.5,2.3-2.2,3.4-2.2c0.7,0,1.2,0.2,1.7,0.5c0.5,0.3,0.8,0.8,1.1,1.3
		c0.3,0.5,0.5,1.1,0.6,1.8s0.2,1.3,0.2,2c0,0.5,0,1.3-0.1,2.4c-0.1,1.1-0.2,2.3-0.3,3.5c-0.1,1.2-0.2,2.5-0.3,3.7
		C247,61.9,246.9,63,246.8,63.8z"/>
	<path d="M293.2,55.2c1.4,6.6,3.4,10,6.1,10c1,0,2-0.4,3-1.1c0.9-0.8,1.8-1.7,2.6-2.8s1.5-2.3,2.2-3.5c0.6-1.2,1.1-2.3,1.6-3.2
		c0.3-0.7,0.8-1,1.5-1c0.5,0,0.8,0.2,1.2,0.5s0.5,0.7,0.5,1.1c0,0.2,0,0.4-0.1,0.6c-0.2,0.5-0.5,1.1-0.9,2s-0.9,1.7-1.4,2.6
		c-0.6,0.9-1.2,1.9-1.9,2.9s-1.5,1.9-2.3,2.6s-1.7,1.4-2.6,1.9c-0.9,0.5-1.9,0.8-3,0.8c-1.9,0-3.6-0.7-5-2c-1.4-1.3-2.6-3.5-3.6-6.6
		c-1.4,2.9-2.8,5.1-4.2,6.4s-2.9,2-4.6,2c-0.9,0-1.7-0.1-2.5-0.4s-1.5-0.7-2.1-1.4c-0.6-0.6-1.1-1.4-1.5-2.4c-0.4-1-0.6-2.2-0.6-3.6
		c0-2,0.3-3.8,1-5.5s1.6-3.1,2.7-4.3c1.1-1.2,2.3-2.1,3.6-2.8c1.3-0.7,2.7-1,4-1c0.4,0,0.8,0.2,1.1,0.5c0.3,0.3,0.5,0.7,0.5,1.1
		c0,0.4-0.1,0.8-0.4,1.1c-0.3,0.3-0.6,0.5-1,0.6c-0.9,0.1-1.8,0.4-2.8,0.8c-1,0.4-1.9,1.1-2.7,1.9c-0.8,0.8-1.5,1.9-2,3.1
		c-0.5,1.3-0.8,2.8-0.8,4.5c0,1.4,0.3,2.6,0.9,3.4c0.6,0.8,1.4,1.2,2.6,1.2c0.5,0,0.9-0.1,1.5-0.4s1.1-0.7,1.7-1.4s1.2-1.7,1.9-3.1
		c0.7-1.3,1.5-3.1,2.3-5.2c-0.5-2.5-0.9-5.4-1.3-8.7s-0.6-7-0.6-11.1c0-1.8,0.1-3.6,0.2-5.6c0.1-1.9,0.3-3.8,0.6-5.7
		c0.3-1.9,0.6-3.6,1-5.3c0.4-1.7,1-3.1,1.6-4.4c0.6-1.3,1.3-2.3,2.2-3s1.8-1.1,2.8-1.1c0.9,0,1.8,0.3,2.4,0.8
		c0.7,0.5,1.2,1.2,1.6,2.2c0.4,0.9,0.7,2,0.9,3.3c0.2,1.3,0.3,2.7,0.3,4.3c0,3.3-0.3,6.7-0.9,10c-0.6,3.3-1.3,6.5-2.1,9.6
		c-0.8,3-1.7,5.9-2.7,8.4C294.8,51.1,294,53.3,293.2,55.2z M298.2,20.4c0-0.7,0-1.5-0.1-2.3s-0.1-1.6-0.3-2.3s-0.4-1.3-0.6-1.8
		c-0.3-0.5-0.6-0.7-1-0.7c-0.7,0-1.4,0.6-2,1.9c-0.6,1.3-1.2,2.9-1.6,5c-0.5,2.1-0.8,4.4-1.1,7c-0.3,2.6-0.4,5.2-0.4,7.9
		c0,2.5,0.1,5.1,0.3,7.6s0.4,4.8,0.7,6.8c0.8-2.2,1.6-4.5,2.4-6.8c0.7-2.3,1.4-4.7,2-7.2c0.6-2.4,1-4.9,1.3-7.4
		C298.1,25.4,298.2,22.9,298.2,20.4z"/>
	<path d="M313.5,51.7c-0.2,0.5-0.4,1-0.6,1.6c-0.2,0.6-0.5,1.2-0.8,1.8c-0.3,0.5-0.5,0.9-0.8,1.1c-0.3,0.3-0.6,0.4-1.1,0.4
		c-0.5,0-0.9-0.2-1.2-0.5c-0.3-0.3-0.4-0.7-0.4-1.1c0-0.1,0-0.3,0-0.4c0-0.1,0.1-0.3,0.2-0.5c0.7-1.4,1.3-2.7,1.7-3.8
		c0.4-1.1,0.7-2.2,0.9-3.4c-0.2-0.7-0.3-1.2-0.4-1.7c-0.1-0.5-0.1-0.9-0.1-1.4c0-0.9,0.2-1.7,0.6-2.3c0.4-0.6,1-0.9,1.7-0.9
		c0.7,0,1.2,0.3,1.6,0.9c0.4,0.6,0.6,1.3,0.6,2.1c0,0.5,0,0.9-0.1,1.4c-0.1,0.5-0.2,1-0.3,1.7c0.7,1.6,1.3,3.1,2,4.4
		c0.7,1.3,1.2,2.4,1.8,3.5c0.5,1,0.9,2,1.3,3c0.3,0.9,0.5,1.8,0.5,2.8c0,1.2-0.2,2.4-0.7,3.4c-0.5,1.1-1.3,2-2.4,2.8
		c0.1,0,0.3,0,0.4,0s0.3,0,0.4,0c1.6,0,3.1-0.4,4.5-1.1c1.4-0.7,2.6-1.7,3.7-2.9s2.1-2.5,3-4s1.6-2.9,2.2-4.3c0.3-0.7,0.7-1,1.2-1
		c0.5,0,0.9,0.2,1.1,0.5c0.3,0.3,0.4,0.7,0.4,1.1c0,0.2,0,0.4-0.1,0.6c-0.3,0.8-0.7,1.7-1.2,2.6c-0.5,1-1.1,2-1.8,3.1
		c-0.7,1-1.5,2.1-2.4,3.1c-0.9,1-1.9,1.9-3.1,2.7c-1.1,0.8-2.4,1.4-3.7,1.9c-1.3,0.5-2.8,0.7-4.4,0.7c-1.9,0-3.7-0.3-5.4-1
		c-1.7-0.7-3-1.8-4-3.3c-0.2-0.3-0.3-0.5-0.3-0.8c0-0.4,0.2-0.8,0.5-1.1s0.7-0.5,1.1-0.5c0.5,0,0.8,0.2,1.2,0.5
		c0,0.1,0.1,0.2,0.3,0.3c0.2,0.1,0.4,0.3,0.6,0.4c0.2,0.2,0.5,0.3,0.9,0.4c0.3,0.1,0.7,0.2,1,0.2c0.7,0,1.3-0.1,1.7-0.4
		c0.5-0.3,0.9-0.6,1.1-1.1c0.3-0.4,0.5-0.9,0.6-1.3c0.1-0.5,0.2-0.9,0.2-1.2c0-0.7-0.1-1.4-0.3-2.2c-0.2-0.7-0.5-1.4-0.9-2.2
		s-0.7-1.5-1.2-2.2C314.2,53.4,313.8,52.6,313.5,51.7z"/>
	<path d="M341.9,49.2c0,0.7-0.2,1.2-0.7,1.7c-0.4,0.4-1,0.7-1.7,0.7c-0.7,0-1.2-0.2-1.7-0.7c-0.4-0.4-0.7-1-0.7-1.7
		c0-0.6,0.2-1.2,0.7-1.6c0.4-0.4,1-0.7,1.7-0.7c0.7,0,1.2,0.2,1.7,0.7C341.7,48,341.9,48.6,341.9,49.2z M341.9,66.4
		c0,0.7-0.2,1.2-0.7,1.7s-1,0.7-1.7,0.7c-0.7,0-1.2-0.2-1.7-0.7s-0.7-1-0.7-1.7c0-0.6,0.2-1.2,0.7-1.6c0.4-0.4,1-0.7,1.7-0.7
		c0.7,0,1.2,0.2,1.7,0.7C341.7,65.3,341.9,65.8,341.9,66.4z"/>
</g>
</svg>
