<?xml version="1.0" encoding="iso-8859-1"?>
<!-- Generator: Adobe Illustrator 17.0.0, SVG Export Plug-In . SVG Version: 6.00 Build 0)  -->
<!DOCTYPE svg PUBLIC "-//W3C//DTD SVG 1.1//EN" "http://www.w3.org/Graphics/SVG/1.1/DTD/svg11.dtd">
<svg version="1.1" id="Layer_1" xmlns="http://www.w3.org/2000/svg" xmlns:xlink="http://www.w3.org/1999/xlink" x="0px" y="0px"
	 width="150px" height="120px" viewBox="0 0 150 120" style="enable-background:new 0 0 150 120;" xml:space="preserve">
<g>
	<path style="fill:#FFFFFF;" d="M27.784,85.886l-10.56,4.936c0,2.486,0.8,4.502,3.285,4.502h108.982
		c2.486,0,3.286-2.016,3.286-4.502l-10.56-4.936H27.784z"/>
	<path style="fill:#FFFFFF;" d="M29.39,36.49v47.246h91.222V36.49c0-2.486-2.016-4.502-4.501-4.502H33.889
		C31.404,31.988,29.39,34.004,29.39,36.49z M116.101,35.989v44.535H33.902V35.989H116.101z"/>
	<g>
		<path style="fill:#FFFFFF;" d="M42.798,47.16v2.04v20.839v0.571v2.273h28.908v-2.273v-0.571V49.2v-2.04v-3.636H42.798V47.16z
			 M70.692,49.2v20.839H49.803V49.2H70.692z M67.058,45.72h1.964v1.904h-1.964h-9.806V45.72H67.058z M47.07,45.72v1.904h-1.964
			V45.72H47.07z"/>
		<g>
			<rect x="51.563" y="50.804" style="fill:#FFFFFF;" width="9.108" height="1.245"/>
		</g>
		<g>
			<rect x="51.563" y="59.761" style="fill:#FFFFFF;" width="6.888" height="1.245"/>
		</g>
		<g>
			<rect x="51.563" y="53.79" style="fill:#FFFFFF;" width="13.777" height="1.245"/>
		</g>
		<g>
			<g>
				<g>
					<rect x="99.085" y="45.606" style="fill:#FFFFFF;" width="1.443" height="0.781"/>
				</g>
				<g>
					<rect x="101.739" y="45.606" style="fill:#FFFFFF;" width="1.443" height="0.781"/>
				</g>
				<g>
					<rect x="82.134" y="45.606" style="fill:#FFFFFF;" width="1.443" height="0.781"/>
				</g>
				<g>
					<rect x="84.788" y="45.606" style="fill:#FFFFFF;" width="1.443" height="0.781"/>
				</g>
				<g>
					<polygon style="fill-rule:evenodd;clip-rule:evenodd;fill:#F6E87E;" points="90.006,57.819 90.006,57.808 90.011,57.819 					
						"/>
				</g>
				<path style="fill:#FFFFFF;" d="M78.221,66.842l0.952,2.465h27.061l0.952-2.465H78.221z M80.714,67.882l-0.234-0.001l0.203,0.495
					l-0.366,0l-0.207-0.496l-0.245-0.001l-0.109-0.262l0.852,0.003L80.714,67.882z"/>
				<g>
					<path style="fill:none;stroke:#C3996B;stroke-linecap:round;stroke-linejoin:round;stroke-miterlimit:10;" d="M89.44,59.879"/>
				</g>
				<path style="fill:#FFFFFF;" d="M78.117,66.3h29.175V46.929H78.117V66.3z M103.156,48.829v15.787H82.107V48.829H103.156z"/>
			</g>
		</g>
	</g>
</g>
</svg>
