<?xml version="1.0" encoding="iso-8859-1"?>
<!-- Generator: Adobe Illustrator 17.0.0, SVG Export Plug-In . SVG Version: 6.00 Build 0)  -->
<!DOCTYPE svg PUBLIC "-//W3C//DTD SVG 1.1//EN" "http://www.w3.org/Graphics/SVG/1.1/DTD/svg11.dtd">
<svg version="1.1" id="Layer_1" xmlns="http://www.w3.org/2000/svg" xmlns:xlink="http://www.w3.org/1999/xlink" x="0px" y="0px"
	 width="150px" height="120px" viewBox="0 0 150 120" style="enable-background:new 0 0 150 120;" xml:space="preserve">
<g>
	<g>
		<g>
			<g>
				<rect x="138.586" y="50.995" style="fill:#FFFFFF;" width="1.379" height="0.747"/>
			</g>
			<g>
				<rect x="141.125" y="50.995" style="fill:#FFFFFF;" width="1.379" height="0.747"/>
			</g>
			<g>
				<rect x="122.379" y="50.995" style="fill:#FFFFFF;" width="1.379" height="0.747"/>
			</g>
			<g>
				<rect x="124.917" y="50.995" style="fill:#FFFFFF;" width="1.379" height="0.747"/>
			</g>
			<g>
				<polygon style="fill-rule:evenodd;clip-rule:evenodd;fill:#F6E87E;" points="129.906,62.672 129.906,62.662 129.911,62.672 				
					"/>
			</g>
			<path style="fill:#FFFFFF;" d="M118.638,71.3l0.911,2.357h25.874l0.911-2.357H118.638z M121.021,72.293l-0.224-0.001l0.194,0.473
				l-0.35,0l-0.197-0.474l-0.235-0.001l-0.104-0.25l0.815,0.003L121.021,72.293z"/>
			<g>
				<path style="fill:none;stroke:#C3996B;stroke-linecap:round;stroke-linejoin:round;stroke-miterlimit:10;" d="M129.365,64.642"
					/>
			</g>
			<path style="fill:#FFFFFF;" d="M118.538,70.781h27.895V52.26h-27.895V70.781z M142.479,54.077v15.094h-20.125V54.077H142.479z"/>
		</g>
	</g>
	<path style="fill:#FFFFFF;" d="M129.922,58.664c0-0.337,0.273-0.61,0.61-0.61c0.105,0,0.171,0.027,0.288,0.074l4.279,2.49
		c0.199,0.118,0.291,0.307,0.327,0.526v0.061c-0.035,0.218-0.128,0.408-0.327,0.526l-4.279,2.489
		c-0.117,0.047-0.183,0.074-0.288,0.074c-0.337,0-0.61-0.273-0.61-0.61V58.664z"/>
	<g>
		<path style="fill:#FFFFFF;" d="M133.149,44.02h-3v-5h3V44.02z M133.149,34.019h-3v-0.196c0-1.404-0.294-2.763-0.873-4.038
			l2.731-1.24c0.757,1.667,1.142,3.443,1.142,5.278V34.019z M57.158,29.557l-2.699-1.309c0.819-1.688,2.025-3.208,3.488-4.396
			l1.891,2.33C58.713,27.094,57.787,28.262,57.158,29.557z M126.683,26.344c-1.102-0.942-2.417-1.64-3.802-2.018l0.79-2.895
			c1.81,0.494,3.525,1.404,4.961,2.631L126.683,26.344z M63.69,24.265l-0.717-2.914c0.992-0.243,2.017-0.367,3.045-0.367h2.288v3
			h-2.288C65.231,23.984,64.447,24.079,63.69,24.265z M118.311,23.984h-5v-3h5V23.984z M108.31,23.984h-5v-3h5V23.984z
			 M98.309,23.984h-5v-3h5V23.984z M88.308,23.984h-5.001v-3h5.001V23.984z M78.306,23.984h-5v-3h5V23.984z"/>
	</g>
	<path style="fill:#FFFFFF;" d="M14.356,42.786v41.902H95.26V42.786c0-2.205-1.788-3.992-3.992-3.992H18.347
		C16.143,38.793,14.356,40.581,14.356,42.786z M91.259,42.341v39.497H18.358V42.341H91.259z"/>
	<path style="fill:#FFFFFF;" d="M12.933,86.646l-9.366,4.377c0,2.205,0.709,3.993,2.913,3.993h96.655
		c2.205,0,2.914-1.788,2.914-3.993l-9.366-4.377H12.933z"/>
	<path style="fill:#FFFFFF;" d="M49.049,63.656c-0.376,0-0.753-0.144-1.04-0.431c-0.574-0.574-0.574-1.504,0-2.078
		c1.587-1.585,3.695-2.459,5.937-2.459c2.242,0,4.351,0.874,5.936,2.459c0.574,0.574,0.574,1.504,0,2.078
		c-0.574,0.574-1.504,0.574-2.078,0c-1.031-1.031-2.4-1.598-3.858-1.598c-1.458,0-2.828,0.567-3.859,1.598
		C49.801,63.511,49.425,63.656,49.049,63.656z"/>
	<path style="fill:#FFFFFF;" d="M63.742,58.758c-0.376,0-0.753-0.144-1.04-0.431c-2.338-2.34-5.447-3.628-8.756-3.628
		c-3.307,0-6.418,1.288-8.757,3.628c-0.573,0.574-1.504,0.574-2.078,0c-0.574-0.574-0.574-1.504,0-2.078
		c2.896-2.894,6.742-4.488,10.835-4.488s7.941,1.594,10.834,4.488c0.574,0.574,0.574,1.504,0,2.078
		C64.495,58.614,64.118,58.758,63.742,58.758z"/>
	<path style="fill:#FFFFFF;" d="M53.947,69.777c-0.58,0-1.148-0.236-1.558-0.644c-0.412-0.412-0.647-0.98-0.647-1.56
		c0-0.58,0.235-1.148,0.647-1.558c0.409-0.409,0.977-0.647,1.558-0.647c0.58,0,1.148,0.237,1.558,0.647
		c0.412,0.409,0.647,0.977,0.647,1.558c0,0.58-0.235,1.148-0.647,1.56C55.095,69.541,54.527,69.777,53.947,69.777z"/>
</g>
</svg>
