<?xml version="1.0" encoding="iso-8859-1"?>
<!-- Generator: Adobe Illustrator 17.0.0, SVG Export Plug-In . SVG Version: 6.00 Build 0)  -->
<!DOCTYPE svg PUBLIC "-//W3C//DTD SVG 1.1//EN" "http://www.w3.org/Graphics/SVG/1.1/DTD/svg11.dtd">
<svg version="1.1" id="Layer_1" xmlns="http://www.w3.org/2000/svg" xmlns:xlink="http://www.w3.org/1999/xlink" x="0px" y="0px"
	 width="150px" height="120px" viewBox="0 0 150 120" style="enable-background:new 0 0 150 120;" xml:space="preserve">
<g>
	<polygon style="fill:none;" points="48.643,34.734 53.985,31.65 59.327,28.565 64.669,25.482 70.012,22.397 75.354,19.313 
		70.012,16.228 64.669,19.313 59.327,22.397 53.985,25.482 48.643,28.565 43.301,31.65 37.958,34.734 37.958,40.902 37.958,47.071 
		43.301,50.156 48.643,47.071 53.985,43.987 59.327,40.902 59.327,47.071 59.327,53.239 59.327,59.41 53.985,62.493 53.985,56.325 
		53.985,50.156 48.643,53.239 48.643,59.41 48.643,65.578 53.985,68.662 59.327,65.578 64.669,62.493 64.669,56.325 64.669,50.156 
		64.669,43.987 64.669,37.819 70.012,34.734 75.354,31.65 75.354,25.482 70.012,28.565 64.669,31.65 59.327,34.734 53.985,37.819 
		48.643,40.902 43.301,43.987 43.301,37.819 	"/>
	<path style="fill:none;" d="M70.012,40.902v6.169v6.168v6.17v6.169l-5.342,3.083l-5.342,3.085l-5.342,3.083l-5.342-3.083
		l-5.342-3.085v-6.169v-6.169l-5.342-3.085l-5.342-3.083v-6.169v-6.169V31.65l5.342-3.085l5.342-3.083l5.342-3.085l5.342-3.083
		l5.342-3.085l5.342-3.083l5.342-3.085l5.342,3.085l5.342,3.083v6.169v6.168v6.169l-5.342,3.085L70.012,40.902z M94.593,72.743
		l-3.992,6.844c-0.202,0.348-0.579,0.564-0.983,0.564h-7.985c-0.407,0-0.781-0.214-0.986-0.564l-3.993-6.844
		c-0.208-0.353-0.208-0.796,0-1.149l3.993-6.844c0.205-0.348,0.582-0.565,0.986-0.565h7.985c0.404,0,0.781,0.214,0.983,0.565
		l3.992,6.844C94.801,71.947,94.801,72.39,94.593,72.743z"/>
	<path style="fill:none;stroke:#FFFFFF;stroke-width:3;stroke-miterlimit:10;" d="M80.696,28.565v-6.168v-6.169l-5.342-3.083
		l-5.342-3.085l-5.342,3.085l-5.342,3.083l-5.342,3.085l-5.342,3.083l-5.342,3.085l-5.342,3.083l-5.342,3.085v6.169v6.169v6.169
		l5.342,3.083l5.342,3.085v6.169v6.169l5.342,3.085l5.342,3.083l5.342-3.083l5.342-3.085l5.342-3.083V59.41v-6.17v-6.168v-6.169
		l5.342-3.083l5.342-3.085V28.565z M48.643,40.902l5.342-3.083l5.342-3.085l5.342-3.083l5.342-3.085l5.342-3.083v6.169l-5.342,3.083
		l-5.342,3.085v6.169v6.169v6.168v6.169l-5.342,3.085l-5.342,3.083l-5.342-3.083V59.41v-6.17l5.342-3.083v6.168v6.169l5.342-3.083
		v-6.17v-6.168v-6.169l-5.342,3.085l-5.342,3.083l-5.342,3.085l-5.342-3.085v-6.169v-6.168l5.342-3.083l5.342-3.085l5.342-3.083
		l5.342-3.085l5.342-3.083l5.342-3.085l5.342,3.085l-5.342,3.083l-5.342,3.085l-5.342,3.083l-5.342,3.085l-5.342,3.083l-5.342,3.085
		v6.169L48.643,40.902z"/>
	<path style="fill:#FFFFFF;" d="M78.079,91.279l-2.726,3.658l0.916,0.682c0.376-0.505,1.092-0.61,1.596-0.234
		c0.508,0.376,0.61,1.089,0.234,1.597l0.915,0.682c0.38-0.508,1.092-0.61,1.597-0.234c0.507,0.377,0.61,1.092,0.233,1.597
		l0.916,0.681c0.376-0.504,1.089-0.607,1.597-0.231c0.504,0.377,0.607,1.092,0.231,1.597l0.916,0.681
		c0.376-0.505,1.092-0.61,1.596-0.234c0.505,0.376,0.607,1.089,0.231,1.597l0.915,0.682c0.376-0.507,1.092-0.61,1.597-0.234
		c0.505,0.376,0.61,1.092,0.234,1.597l0.916,0.682c0.377-0.505,1.092-0.607,1.597-0.231c0.507,0.377,0.61,1.092,0.233,1.597
		l0.916,0.681c0.377-0.505,1.092-0.607,1.597-0.231c0.507,0.377,0.61,1.089,0.234,1.597l0.915,0.681l2.709-3.667l-0.916-0.682
		c-0.223,0.299-0.568,0.459-0.916,0.459c-0.236,0-0.476-0.074-0.682-0.225c-0.505-0.376-0.607-1.089-0.231-1.597l-0.915-0.679
		c-0.226,0.299-0.567,0.459-0.916,0.459c-0.236,0-0.476-0.074-0.681-0.225c-0.505-0.377-0.608-1.093-0.231-1.597l-0.915-0.682
		c-0.222,0.3-0.567,0.459-0.916,0.459c-0.237,0-0.476-0.074-0.678-0.228c-0.505-0.377-0.61-1.092-0.234-1.597l-0.915-0.681
		c-0.222,0.299-0.567,0.459-0.916,0.459c-0.236,0-0.476-0.074-0.678-0.226c-0.508-0.377-0.61-1.089-0.234-1.597l-0.915-0.682v0.003
		c-0.223,0.299-0.568,0.459-0.916,0.459c-0.237,0-0.477-0.074-0.682-0.226c-0.505-0.376-0.607-1.092-0.231-1.597l-0.915-0.682
		c-0.223,0.299-0.568,0.459-0.915,0.459c-0.237,0-0.476-0.074-0.682-0.229c-0.504-0.376-0.607-1.092-0.23-1.597l-0.916-0.682
		c-0.223,0.3-0.567,0.459-0.916,0.459c-0.234,0-0.473-0.074-0.679-0.225c-0.505-0.377-0.607-1.089-0.231-1.597L78.079,91.279z"/>
	<path style="fill:#FFFFFF;" d="M105.744,78.003c0.331-0.167,0.728-0.191,1.074,0.007l0.565-0.99
		c-0.547-0.313-0.739-1.009-0.425-1.556c0.313-0.545,1.009-0.736,1.557-0.426l0.565-0.992c-0.544-0.314-0.736-1.01-0.425-1.557
		c0.314-0.545,1.01-0.736,1.557-0.425l0.564-0.989l-3.964-2.259l-0.567,0.99c0.548,0.313,0.739,1.009,0.425,1.557
		c-0.128,0.227-0.327,0.384-0.551,0.478v2.764C106.119,75.772,105.984,76.907,105.744,78.003z"/>
	<path style="fill:#FFFFFF;" d="M98.9,83.83c-0.191,0-0.386-0.048-0.562-0.148l-0.564,0.99c0.091,0.052,0.156,0.128,0.226,0.198
		c0.461-0.35,0.906-0.72,1.316-1.128C99.182,83.794,99.043,83.83,98.9,83.83z"/>
	<path style="fill:#FFFFFF;" d="M96.499,89.207c-0.212,0.366-0.594,0.569-0.987,0.569c-0.119,0-0.239-0.026-0.357-0.065
		c-0.104,0.034-0.206,0.071-0.311,0.103l-0.458,0.803l3.964,2.259l0.551-0.998c-0.545-0.311-0.739-1.01-0.425-1.557
		c0.313-0.545,1.009-0.736,1.557-0.425l0.565-0.989c-0.545-0.314-0.736-1.01-0.425-1.557c0.311-0.548,1.01-0.739,1.557-0.425
		l0.564-0.993c-0.213-0.122-0.353-0.309-0.449-0.515C100.35,87.022,98.539,88.326,96.499,89.207z"/>
	<path style="fill:#FFFFFF;" d="M101.725,77.737l-0.565,0.989c0.548,0.314,0.739,1.01,0.425,1.557
		c-0.208,0.368-0.593,0.576-0.989,0.576c-0.191,0-0.385-0.048-0.565-0.151l-0.564,0.99c0.473,0.272,0.659,0.83,0.499,1.332
		c1.287-1.487,2.234-3.269,2.736-5.231c-0.132,0.051-0.27,0.087-0.413,0.087C102.099,77.885,101.905,77.839,101.725,77.737z"/>
	<path style="fill:#FFFFFF;" d="M105.119,80.982l0.567-0.989c-0.167-0.096-0.288-0.234-0.385-0.387
		c-0.144,0.434-0.3,0.862-0.48,1.278C104.922,80.908,105.024,80.928,105.119,80.982z"/>
	<path style="fill:#FFFFFF;" d="M103.052,75.923c0.019-0.185,0.018-0.375,0.029-0.563l-0.224,0.391
		C102.935,75.797,102.989,75.864,103.052,75.923z"/>
	<path style="fill:#FFFFFF;" d="M103.422,83.951l0.564-0.99c-0.07-0.04-0.116-0.1-0.174-0.151c-0.216,0.357-0.443,0.706-0.686,1.044
		C103.227,83.878,103.328,83.897,103.422,83.951z"/>
	<path style="fill:#FFFFFF;" d="M94.949,89.628l-0.106,0.186c0.105-0.032,0.207-0.069,0.311-0.103
		C95.085,89.688,95.016,89.666,94.949,89.628z"/>
	<path style="fill:#FFFFFF;" d="M105.116,71.787l-0.564,0.99c0.545,0.314,0.738,1.01,0.425,1.557
		c-0.211,0.368-0.596,0.576-0.993,0.576c-0.188,0-0.385-0.049-0.561-0.148l-0.342,0.598c-0.011,0.187-0.01,0.378-0.029,0.563
		c0.377,0.353,0.496,0.917,0.23,1.386c-0.135,0.237-0.345,0.398-0.58,0.489c-0.502,1.962-1.449,3.744-2.736,5.231
		c-0.024,0.075-0.033,0.153-0.074,0.225c-0.135,0.234-0.343,0.395-0.577,0.487c-0.41,0.408-0.854,0.778-1.316,1.128
		c0.355,0.355,0.46,0.902,0.199,1.359c-0.209,0.37-0.594,0.576-0.99,0.576c-0.191,0-0.385-0.049-0.564-0.148l-0.565,0.989
		c0.547,0.311,0.739,1.007,0.425,1.554c-0.001,0.002-0.004,0.004-0.005,0.007c2.041-0.881,3.852-2.185,5.345-3.79
		c-0.152-0.324-0.168-0.706,0.024-1.041c0.258-0.452,0.776-0.641,1.259-0.522c0.243-0.338,0.47-0.687,0.686-1.044
		c-0.395-0.349-0.524-0.925-0.251-1.403c0.26-0.45,0.777-0.64,1.26-0.523c0.18-0.416,0.336-0.845,0.48-1.278
		c-0.219-0.346-0.257-0.791-0.04-1.17c0.115-0.201,0.291-0.334,0.483-0.432c0.24-1.096,0.375-2.231,0.375-3.398v-2.764
		c-0.139,0.058-0.286,0.098-0.438,0.098C105.489,71.939,105.295,71.891,105.116,71.787z"/>
	<path style="fill:#FFFFFF;" d="M114.877,70.79l2.261-3.964l-3.964-2.258l-0.564,0.989c-0.208,0.368-0.594,0.576-0.99,0.576
		c-0.191,0-0.385-0.048-0.564-0.151c-0.544-0.313-0.739-1.01-0.425-1.557l0.564-0.989l-3.963-2.259l-1.113,1.949v2.672
		L114.877,70.79z"/>
	<polygon style="fill:#FFFFFF;" points="106.119,65.797 106.119,63.125 104.968,65.141 	"/>
	<polygon style="fill:#FFFFFF;" points="74.645,84.452 72.371,87.505 78.061,87.505 78.304,87.178 	"/>
	<path style="fill:#FFFFFF;" d="M72.153,90.849c-0.237,0-0.476-0.074-0.682-0.226l-0.159-0.118h-1.176L67.83,93.6l3.659,2.727
		l1.363-1.828l1.391-1.871l1.582-2.123h-2.866C72.74,90.726,72.45,90.849,72.153,90.849z"/>
	<polygon style="fill:#FFFFFF;" points="70.556,89.942 70.136,90.505 71.313,90.505 	"/>
	<path style="fill:#FFFFFF;" d="M71.92,88.111l0.915,0.681c0.508,0.377,0.611,1.09,0.234,1.597c-0.032,0.044-0.072,0.078-0.11,0.115
		h2.866l2.236-3h-5.69L71.92,88.111z"/>
	<circle style="fill:#FFFFFF;" cx="85.624" cy="72.098" r="2.281"/>
	<path style="fill:#FFFFFF;" d="M82.288,66.463l-3.328,5.704l3.328,5.703h6.675l3.328-5.703l-3.328-5.704H82.288z M85.624,76.661
		c-2.515,0-4.563-2.048-4.563-4.563c0-2.515,2.048-4.563,4.563-4.563c2.515,0,4.563,2.048,4.563,4.563
		C90.187,74.613,88.14,76.661,85.624,76.661z"/>
	<path style="fill:#FFFFFF;" d="M107.383,93.84l-3.328,5.704l3.328,5.703h6.673l3.328-5.703l-3.328-5.704H107.383z M110.719,104.035
		c-2.515,0-4.563-2.047-4.563-4.563c0-2.515,2.048-4.563,4.563-4.563s4.563,2.048,4.563,4.563
		C115.282,101.99,113.235,104.035,110.719,104.035z"/>
	<path style="fill:#FFFFFF;" d="M110.719,97.191c-1.258,0-2.281,1.024-2.281,2.281c0,1.258,1.023,2.281,2.281,2.281
		s2.281-1.021,2.281-2.281C113.001,98.215,111.977,97.191,110.719,97.191z"/>
</g>
</svg>
