<?xml version="1.0" encoding="iso-8859-1"?>
<!-- Generator: Adobe Illustrator 17.0.0, SVG Export Plug-In . SVG Version: 6.00 Build 0)  -->
<!DOCTYPE svg PUBLIC "-//W3C//DTD SVG 1.1//EN" "http://www.w3.org/Graphics/SVG/1.1/DTD/svg11.dtd">
<svg version="1.1" id="Layer_1" xmlns="http://www.w3.org/2000/svg" xmlns:xlink="http://www.w3.org/1999/xlink" x="0px" y="0px"
	 width="150px" height="120px" viewBox="0 0 150 120" style="enable-background:new 0 0 150 120;" xml:space="preserve">
<g>
	<g>
		<path style="fill:none;" d="M90.539,41.2l-0.653-1.373c-0.132-0.196-0.132-0.392,0-0.588l0.784-1.308l-1.505,0.196
			c-0.26,0.064-0.457-0.064-0.588-0.196l-1.045-1.112l-0.26,1.505c-0.064,0.196-0.196,0.392-0.392,0.457l-1.376,0.649l1.373,0.72
			c0.196,0.132,0.328,0.328,0.328,0.524l0.132,1.505l1.112-1.045c0.132-0.196,0.392-0.26,0.588-0.196L90.539,41.2z"/>
		<path style="fill:none;" d="M92.567,48.974v-0.653l-0.524,0.392c-0.132,0.132-0.392,0.196-0.585,0.129l-0.653-0.196l0.196,0.653
			c0.064,0.196,0,0.392-0.132,0.588l-0.392,0.524h0.653c0.196,0,0.392,0.064,0.524,0.26l0.392,0.524l0.196-0.653
			c0.064-0.26,0.26-0.392,0.457-0.457l0.652-0.196l-0.524-0.392C92.632,49.366,92.567,49.17,92.567,48.974z"/>
		<path style="fill:none;" d="M97.927,41.393c-0.588,0-0.981,0.457-0.981,0.981s0.457,0.981,0.981,0.981
			c0.524,0,0.981-0.457,0.981-0.981S98.451,41.393,97.927,41.393z"/>
		<path style="fill:none;" d="M78.131,30.163V29.51l-0.524,0.392c-0.132,0.132-0.392,0.196-0.585,0.129l-0.653-0.196l0.196,0.653
			c0.064,0.196,0,0.392-0.132,0.588L76.042,31.6h0.652c0.196,0,0.392,0.064,0.524,0.26l0.392,0.524l0.196-0.653
			c0.064-0.26,0.26-0.392,0.456-0.457l0.653-0.196l-0.524-0.392C78.196,30.555,78.131,30.359,78.131,30.163z"/>
		<path style="fill:none;" d="M108.214,25.327c0.868,0.421,1.919,0.065,2.339-0.795c0.205-0.414,0.24-0.893,0.091-1.335
			c-0.149-0.441-0.469-0.801-0.883-1.005c-0.414-0.205-0.893-0.24-1.335-0.091c-0.441,0.149-0.801,0.469-1.005,0.883
			C107.002,23.815,107.373,24.911,108.214,25.327z"/>
		<path style="fill:none;" d="M63.872,30.089c-0.466,0-0.909,0.187-1.235,0.514c-0.327,0.327-0.514,0.769-0.514,1.235
			c0,0.466,0.187,0.909,0.514,1.235c0.653,0.663,1.81,0.663,2.474,0c0.677-0.687,0.677-1.797-0.003-2.471
			C64.78,30.277,64.338,30.089,63.872,30.089z"/>
		<path style="fill:none;" d="M85.472,19.769c-0.405-0.405-0.955-0.638-1.533-0.638c-0.578,0-1.128,0.233-1.533,0.638
			c-0.406,0.405-0.638,0.955-0.638,1.533c0,0.578,0.232,1.128,0.638,1.533c0.811,0.823,2.247,0.823,3.071,0
			C86.316,21.983,86.316,20.605,85.472,19.769z"/>
		<path style="fill:none;" d="M98.96,28.227l-0.738-1.336l-0.624,1.394c-0.111,0.174-0.287,0.332-0.493,0.345l-1.494,0.289
			l1.152,1.037c0.157,0.176,0.237,0.399,0.188,0.589l-0.244,1.491l1.336-0.738c0.176-0.157,0.445-0.155,0.619-0.044l1.39,0.626
			l-0.293-1.492c-0.079-0.223-0.031-0.413,0.145-0.57l1.083-1.074l-1.506-0.182C99.214,28.56,99.055,28.387,98.96,28.227z"/>
		<path style="fill:#FFFFFF;" d="M68.009,33.641c0,1.7,2.555,1.7,2.555,0C70.564,31.938,68.009,31.938,68.009,33.641z"/>
		<path style="fill:#FFFFFF;" d="M117.36,30.504c1.613-0.546,0.794-2.966-0.819-2.42C114.93,28.629,115.749,31.049,117.36,30.504z"
			/>
		<path style="fill:#FFFFFF;" d="M61.76,29.723c-0.561,0.561-0.876,1.311-0.876,2.103s0.305,1.542,0.876,2.103
			c0.571,0.56,1.311,0.876,2.111,0.876c0.792,0,1.542-0.306,2.102-0.876c1.157-1.167,1.157-3.046,0-4.213
			C64.852,28.601,62.885,28.601,61.76,29.723z M65.11,33.074c-0.664,0.663-1.821,0.663-2.474,0
			c-0.327-0.327-0.514-0.769-0.514-1.235c0-0.466,0.187-0.909,0.514-1.235c0.327-0.327,0.769-0.514,1.235-0.514
			s0.909,0.187,1.235,0.514C65.787,31.277,65.787,32.386,65.11,33.074z"/>
		<path style="fill:#FFFFFF;" d="M68.009,27.623c0,1.701,2.555,1.701,2.555,0C70.564,25.92,68.009,25.92,68.009,27.623z"/>
		<path style="fill:#FFFFFF;" d="M95.252,49.697l-1.308-0.981l0.064-1.633c0-0.26-0.132-0.456-0.328-0.588
			c-0.196-0.132-0.457-0.064-0.72,0.064l-1.308,0.981l-1.633-0.591c-0.26-0.064-0.524,0-0.652,0.132
			c-0.196,0.196-0.26,0.457-0.132,0.653l0.524,1.569l-0.981,1.308c-0.132,0.196-0.196,0.457-0.064,0.72
			c0.132,0.196,0.328,0.328,0.588,0.392h1.633l0.916,1.373c0.132,0.196,0.328,0.26,0.524,0.26h0.064
			c0.26-0.064,0.457-0.196,0.524-0.457l0.524-1.569l1.569-0.457c0.26-0.064,0.392-0.26,0.457-0.524
			C95.576,50.089,95.448,49.825,95.252,49.697z M92.699,50.086c-0.196,0.064-0.392,0.196-0.457,0.457l-0.196,0.653l-0.392-0.524
			c-0.132-0.196-0.328-0.26-0.524-0.26h-0.653l0.392-0.524c0.132-0.196,0.196-0.392,0.132-0.588l-0.196-0.653l0.653,0.196
			c0.193,0.068,0.453,0.003,0.585-0.129l0.524-0.392v0.653c0,0.196,0.064,0.392,0.26,0.524l0.524,0.392L92.699,50.086z"/>
		<path style="fill:#FFFFFF;" d="M97.927,40.084c-1.241,0-2.289,1.045-2.289,2.289c0,1.241,0.981,2.289,2.289,2.289
			c1.241,0,2.289-1.045,2.289-2.289C100.216,41.132,99.171,40.084,97.927,40.084z M97.927,43.354c-0.524,0-0.981-0.457-0.981-0.981
			s0.392-0.981,0.981-0.981c0.524,0,0.981,0.457,0.981,0.981S98.451,43.354,97.927,43.354z"/>
		<path style="fill:#FFFFFF;" d="M91.516,42.765c0.26,0.064,0.524-0.064,0.653-0.26c0.132-0.196,0.196-0.457,0.064-0.653
			l-1.045-2.289l1.241-2.157c0.132-0.196,0.132-0.457,0-0.72c-0.132-0.196-0.392-0.328-0.653-0.26l-2.479,0.392l-1.701-1.897
			c-0.196-0.196-0.392-0.26-0.653-0.196s-0.392,0.26-0.457,0.524l-0.456,2.485l-2.289,1.045c-0.196,0.132-0.392,0.328-0.392,0.588
			s0.129,0.392,0.325,0.521l2.222,1.177l0.26,2.485c0,0.26,0.196,0.457,0.392,0.524c0.064,0,0.132,0.064,0.196,0.064
			c0.196,0,0.328-0.064,0.457-0.196l1.829-1.701L91.516,42.765z M88.449,41.132l-1.112,1.045l-0.132-1.505
			c0-0.196-0.132-0.392-0.328-0.524l-1.373-0.72l1.376-0.649c0.196-0.064,0.328-0.26,0.392-0.457l0.26-1.505l1.045,1.112
			c0.132,0.132,0.328,0.26,0.588,0.196l1.505-0.196l-0.784,1.308c-0.132,0.196-0.132,0.392,0,0.588l0.653,1.373l-1.501-0.264
			C88.841,40.872,88.581,40.936,88.449,41.132z"/>
		<path style="fill:#FFFFFF;" d="M80.816,30.886l-1.308-0.981l0.064-1.633c0-0.26-0.132-0.457-0.328-0.588s-0.456-0.064-0.72,0.064
			l-1.308,0.981l-1.633-0.591c-0.26-0.064-0.524,0-0.653,0.132c-0.196,0.196-0.26,0.457-0.132,0.653l0.524,1.569l-0.981,1.308
			c-0.132,0.196-0.196,0.457-0.064,0.72c0.132,0.196,0.328,0.328,0.588,0.392h1.633l0.916,1.373c0.132,0.196,0.328,0.26,0.524,0.26
			h0.064c0.26-0.064,0.456-0.196,0.524-0.457l0.524-1.569l1.569-0.457c0.26-0.064,0.392-0.26,0.457-0.524
			C81.14,31.278,81.012,31.015,80.816,30.886z M78.263,31.275c-0.196,0.064-0.392,0.196-0.456,0.457l-0.196,0.653l-0.392-0.524
			c-0.132-0.196-0.328-0.26-0.524-0.26h-0.652l0.392-0.524c0.132-0.196,0.196-0.392,0.132-0.588l-0.196-0.653l0.653,0.196
			c0.193,0.068,0.453,0.003,0.585-0.129l0.524-0.392v0.653c0,0.196,0.064,0.392,0.26,0.524l0.524,0.392L78.263,31.275z"/>
		<path style="fill:#FFFFFF;" d="M86.548,23.898c1.437-1.448,1.437-3.781,0-5.23c-1.393-1.384-3.834-1.384-5.23,0.009
			c-0.696,0.697-1.087,1.628-1.087,2.611s0.379,1.914,1.087,2.611c0.709,0.696,1.628,1.088,2.62,1.088
			C84.921,24.986,85.852,24.606,86.548,23.898z M82.405,22.836c-0.406-0.406-0.638-0.955-0.638-1.533
			c0-0.579,0.232-1.128,0.638-1.533c0.405-0.405,0.955-0.638,1.533-0.638c0.579,0,1.128,0.233,1.533,0.638
			c0.844,0.836,0.844,2.214,0.004,3.067C84.652,23.659,83.216,23.659,82.405,22.836z"/>
		<path style="fill:#FFFFFF;" d="M85.461,27.614c0,2.153,3.236,2.153,3.236,0C88.697,25.456,85.461,25.456,85.461,27.614z"/>
		<path style="fill:#FFFFFF;" d="M90.713,22.361c0,2.154,3.236,2.154,3.236,0C93.95,20.203,90.713,20.203,90.713,22.361z"/>
		<path style="fill:#FFFFFF;" d="M102.432,27.56l-2.499-0.233l-1.179-2.258c-0.142-0.238-0.316-0.349-0.584-0.351
			c-0.268-0.002-0.444,0.155-0.572,0.395l-1.057,2.295l-2.476,0.447c-0.223,0.079-0.461,0.221-0.526,0.473
			c-0.064,0.252,0.028,0.412,0.186,0.585l1.862,1.689l-0.362,2.472c-0.064,0.252,0.077,0.491,0.251,0.605
			c0.062,0.016,0.112,0.095,0.174,0.111c0.19,0.048,0.334,0.019,0.491-0.077l2.193-1.196l2.278,1.122
			c0.237,0.127,0.524,0.067,0.697-0.091c0.176-0.158,0.303-0.394,0.224-0.616l-0.447-2.476l1.736-1.784
			c0.176-0.157,0.241-0.41,0.178-0.698C102.921,27.751,102.701,27.559,102.432,27.56z M99.905,29.818
			c-0.176,0.157-0.225,0.348-0.145,0.57l0.293,1.492l-1.39-0.626c-0.174-0.111-0.442-0.113-0.619,0.044l-1.336,0.738l0.244-1.491
			c0.048-0.19-0.031-0.413-0.188-0.589l-1.152-1.037l1.494-0.289c0.206-0.014,0.382-0.171,0.493-0.345l0.624-1.394l0.738,1.336
			c0.095,0.16,0.253,0.333,0.521,0.335l1.506,0.182L99.905,29.818z"/>
		<path style="fill:#FFFFFF;" d="M106.176,24.709c0.254,0.75,0.784,1.363,1.504,1.711c1.476,0.722,3.257,0.12,3.991-1.351
			c0.696-1.42,0.066-3.283-1.357-3.989c-0.711-0.351-1.523-0.409-2.273-0.155c-0.75,0.254-1.363,0.783-1.712,1.504
			C105.982,23.149,105.92,23.951,106.176,24.709z M109.761,22.192c0.414,0.205,0.734,0.564,0.883,1.005
			c0.149,0.442,0.114,0.921-0.091,1.335c-0.42,0.86-1.471,1.216-2.339,0.795c-0.841-0.416-1.211-1.512-0.793-2.343
			c0.205-0.414,0.564-0.733,1.005-0.883C108.868,21.952,109.347,21.987,109.761,22.192z"/>
		<path style="fill:#FFFFFF;" d="M110.401,35.693l0.509-1.554l1.568-0.463c0.247-0.083,0.39-0.271,0.452-0.499
			c0.062-0.228-0.085-0.453-0.292-0.661l-1.348-0.925l0.037-1.737c-0.023-0.267-0.168-0.496-0.334-0.576
			c-0.249-0.123-0.516-0.1-0.66,0.084l-1.318,0.999l-1.554-0.509c-0.228-0.062-0.495-0.039-0.703,0.17
			c-0.144,0.188-0.205,0.416-0.183,0.683l0.523,1.547l-1.007,1.308c-0.144,0.188-0.142,0.394-0.079,0.58l0.021,0.061
			c0.144,0.226,0.332,0.369,0.6,0.35l1.654-0.007l0.935,1.34c0.144,0.226,0.372,0.288,0.643,0.265
			C110.134,36.126,110.342,35.92,110.401,35.693z M109.214,33.399c-0.124-0.165-0.311-0.309-0.579-0.286l-0.681,0.023l0.371-0.539
			c0.143-0.188,0.142-0.394,0.079-0.58l-0.209-0.618l0.622,0.204c0.228,0.062,0.434,0.06,0.6-0.064l0.555-0.395l0.023,0.681
			c-0.002,0.204,0.142,0.43,0.309,0.513l0.539,0.371l-0.618,0.209c-0.186,0.063-0.351,0.187-0.413,0.415l-0.204,0.622
			L109.214,33.399z"/>
		<path style="fill:#FFFFFF;" d="M119.926,37.42l0.298-0.909l0.917-0.271c0.144-0.049,0.228-0.159,0.265-0.292
			c0.036-0.133-0.05-0.265-0.171-0.387l-0.789-0.541l0.021-1.016c-0.013-0.156-0.098-0.29-0.195-0.337
			c-0.145-0.072-0.302-0.059-0.386,0.049l-0.771,0.585l-0.909-0.298c-0.134-0.036-0.29-0.023-0.411,0.099
			c-0.084,0.11-0.12,0.243-0.107,0.4l0.306,0.905l-0.589,0.765c-0.084,0.11-0.083,0.231-0.046,0.339l0.012,0.036
			c0.084,0.132,0.194,0.216,0.351,0.205l0.968-0.004l0.547,0.784c0.085,0.132,0.218,0.168,0.376,0.155
			C119.769,37.674,119.891,37.553,119.926,37.42z"/>
		<path style="fill:#FFFFFF;" d="M100.667,20.498l0.298-0.909l0.917-0.271c0.144-0.049,0.228-0.159,0.265-0.292
			c0.036-0.133-0.05-0.265-0.171-0.387l-0.789-0.541l0.021-1.016c-0.013-0.156-0.098-0.29-0.195-0.337
			c-0.145-0.072-0.302-0.059-0.386,0.049l-0.771,0.585l-0.909-0.298c-0.134-0.036-0.29-0.023-0.411,0.099
			c-0.084,0.11-0.12,0.243-0.107,0.4l0.306,0.905l-0.589,0.765c-0.084,0.11-0.083,0.231-0.046,0.339l0.012,0.036
			c0.084,0.132,0.194,0.216,0.351,0.205l0.968-0.004l0.547,0.784c0.085,0.132,0.218,0.168,0.376,0.155
			C100.51,20.751,100.632,20.631,100.667,20.498z"/>
	</g>
	<g>
		<path style="fill-rule:evenodd;clip-rule:evenodd;fill:#FFFFFF;" d="M122.363,54.019v0.976l0.58-0.304v-0.969l-0.248,0.13
			c-0.005,0.003-0.011,0.005-0.017,0.007L122.363,54.019z"/>
		<g>
			<rect x="129.536" y="44.138" style="fill:#FFFFFF;" width="1.139" height="0.617"/>
		</g>
		<g>
			<rect x="131.632" y="44.138" style="fill:#FFFFFF;" width="1.139" height="0.617"/>
		</g>
		<g>
			<rect x="116.152" y="44.138" style="fill:#FFFFFF;" width="1.139" height="0.617"/>
		</g>
		<g>
			<rect x="118.248" y="44.138" style="fill:#FFFFFF;" width="1.139" height="0.617"/>
		</g>
		<polygon style="fill-rule:evenodd;clip-rule:evenodd;fill:#FFFFFF;" points="124.247,56.375 124.621,56.183 124.621,54.687 
			124.247,54.879 		"/>
		<path style="fill-rule:evenodd;clip-rule:evenodd;fill:#FFFFFF;" d="M123.7,56.184l0.367,0.191v-1.55
			c0-0.034,0.019-0.065,0.049-0.08l0.4-0.205l-0.358-0.188l-0.457,0.244V56.184z"/>
		<polygon style="fill-rule:evenodd;clip-rule:evenodd;fill:#FFFFFF;" points="127.119,54.833 127.493,54.641 127.493,53.145 
			127.119,53.336 		"/>
		<path style="fill-rule:evenodd;clip-rule:evenodd;fill:#FFFFFF;" d="M126.572,54.641l0.367,0.191v-1.551
			c0-0.034,0.019-0.065,0.049-0.08l0.4-0.205l-0.358-0.188l-0.457,0.244V54.641z"/>
		<polygon style="fill-rule:evenodd;clip-rule:evenodd;fill:#FFFFFF;" points="123.508,55.969 127.621,53.824 127.621,50.352 
			123.508,52.497 		"/>
		<g>
			<polygon style="fill-rule:evenodd;clip-rule:evenodd;fill:#F4E77E;" points="122.048,54.624 122.047,54.624 122.047,54.62 			"/>
		</g>
		<g>
			<polygon style="fill-rule:evenodd;clip-rule:evenodd;fill:#F4E77E;" points="122.649,53.772 122.649,53.765 122.653,53.772 			
				"/>
		</g>
		<path style="fill-rule:evenodd;clip-rule:evenodd;fill:#FFFFFF;" d="M120.585,53.101v1.063l1.597,0.83v-1.032
			c0-0.034,0.019-0.065,0.049-0.08l0.377-0.192c0.005-0.002,0.01-0.005,0.015-0.006l0.216-0.113l-1.569-0.829L120.585,53.101z
			 M121.802,54.084v0.404l-0.363-0.189v-0.4L121.802,54.084z M121.283,53.807v0.404l-0.363-0.189v-0.4L121.283,53.807z"/>
		<path style="fill-rule:evenodd;clip-rule:evenodd;fill:#FFFFFF;" d="M121.468,52.08v0.467l0.4,0.209l0.153-0.079v-0.469
			l-0.396-0.208L121.468,52.08z M121.725,52.371v0.256l-0.213-0.114v-0.256L121.725,52.371z"/>
		<path style="fill:#FFFFFF;" d="M113.063,60.905l0.752,1.946h21.365l0.752-1.946H113.063z M115.031,61.725l-0.185-0.001
			l0.161,0.391l-0.289,0l-0.163-0.391l-0.194-0.001l-0.086-0.207l0.673,0.003L115.031,61.725z"/>
		<g>
			<path style="fill:none;stroke:#C2976A;stroke-linecap:round;stroke-linejoin:round;stroke-miterlimit:10;" d="M122.272,55.144"/>
		</g>
		<path style="fill-rule:evenodd;clip-rule:evenodd;fill:#FFFFFF;" d="M122.548,50.191l0.222,0.117
			c0.03,0.016,0.048,0.046,0.048,0.08v0.304l0.308-0.163c0.027-0.014,0.058-0.014,0.084,0l0.825,0.434
			c0.03,0.016,0.048,0.046,0.048,0.08v0.768c0,0.05-0.04,0.09-0.09,0.09c-0.05,0-0.09-0.04-0.09-0.09v-0.713l-0.734-0.386
			l-0.272,0.144v0.652l0.047,0.025l0-0.263c0-0.03,0.015-0.058,0.039-0.075c0.025-0.017,0.056-0.021,0.084-0.01l0.37,0.144
			c0.036,0.014,0.059,0.049,0.058,0.088l-0.018,0.451c-0.002,0.049-0.042,0.087-0.09,0.087c-0.001,0-0.002,0-0.004,0
			c-0.05-0.002-0.089-0.044-0.087-0.094l0.015-0.387l-0.186-0.073l0,0.279c0,0.032-0.016,0.061-0.043,0.077
			c-0.027,0.017-0.061,0.018-0.089,0.003l-0.228-0.118c-0.03-0.016-0.049-0.046-0.049-0.08v-0.317
			c-0.044-0.006-0.078-0.042-0.078-0.088v-0.713l-0.734-0.386L121.63,50.2v0.652l0.047,0.025l0.007-0.306
			c0.001-0.03,0.016-0.057,0.041-0.074c0.025-0.016,0.056-0.019,0.084-0.008l0.395,0.164c0.035,0.014,0.057,0.049,0.056,0.086
			c-0.003,0.102,0.001,0.269,0.01,0.498c0.002,0.05-0.037,0.092-0.086,0.094c-0.001,0-0.003,0-0.004,0
			c-0.048,0-0.088-0.038-0.09-0.086c-0.008-0.192-0.012-0.342-0.012-0.449l-0.216-0.09l-0.008,0.32
			c-0.001,0.031-0.018,0.06-0.044,0.076c-0.027,0.016-0.06,0.017-0.088,0.002l-0.224-0.117c-0.03-0.016-0.048-0.047-0.048-0.08
			v-0.143l-0.532,0.278l2.499,1.299l4.099-2.138l-2.489-1.306L122.548,50.191z"/>
		<path style="fill:#FFFFFF;" d="M112.981,60.477h23.035V45.183h-23.035V60.477z M132.75,46.683v12.464h-16.619V46.683H132.75z"/>
		<g>
			<path style="fill-rule:evenodd;clip-rule:evenodd;fill:#FFFFFF;" d="M120.813,52.778l0.415-0.217
				c0.018-0.01,0.039-0.01,0.059-0.006v-0.531c0-0.034,0.019-0.065,0.049-0.08l0.248-0.127c0.026-0.014,0.057-0.013,0.083,0
				l0.486,0.255c0.03,0.016,0.048,0.046,0.048,0.08v0.078l0.087-0.044c0.026-0.014,0.057-0.013,0.083,0l0.486,0.255
				c0.03,0.016,0.048,0.046,0.048,0.08v0.579c0,0.034-0.019,0.065-0.049,0.08l-0.188,0.097l0.407,0.215
				c0.002,0.001,0.003,0.004,0.005,0.005c0.01,0.006,0.018,0.014,0.025,0.024c0.002,0.003,0.005,0.006,0.006,0.01
				c0.007,0.013,0.012,0.027,0.012,0.042v1.173c0,0.004-0.002,0.008-0.003,0.013c-0.001,0.006-0.002,0.012-0.004,0.018
				c-0.002,0.006-0.005,0.01-0.008,0.015c-0.003,0.005-0.006,0.01-0.009,0.014c-0.004,0.005-0.009,0.008-0.015,0.012
				c-0.004,0.003-0.006,0.006-0.01,0.008l-0.761,0.398c-0.013,0.007-0.028,0.01-0.042,0.01h0c-0.014,0-0.029-0.003-0.042-0.01
				l-1.418-0.737v0.176l2.514,1.307v-3.472l-2.514-1.307V52.778z"/>
		</g>
		<path style="fill-rule:evenodd;clip-rule:evenodd;fill:#FFFFFF;" d="M122.172,52.449v0.467l0.4,0.209l0.153-0.079v-0.469
			l-0.396-0.208L122.172,52.449z M122.429,52.741v0.256l-0.213-0.114v-0.256L122.429,52.741z"/>
	</g>
	<path style="fill-rule:evenodd;clip-rule:evenodd;fill:#FFFFFF;" d="M39.887,70.694v3.311l1.968-1.03v-3.288l-0.842,0.441
		c-0.018,0.009-0.037,0.017-0.057,0.023L39.887,70.694z"/>
	<g>
		<rect x="61.38" y="42.249" style="fill:#FFFFFF;" width="3.261" height="1.765"/>
	</g>
	<g>
		<rect x="67.38" y="42.249" style="fill:#FFFFFF;" width="3.261" height="1.765"/>
	</g>
	<g>
		<rect x="23.064" y="42.249" style="fill:#FFFFFF;" width="3.261" height="1.765"/>
	</g>
	<g>
		<rect x="29.065" y="42.249" style="fill:#FFFFFF;" width="3.261" height="1.765"/>
	</g>
	<polygon style="fill-rule:evenodd;clip-rule:evenodd;fill:#FFFFFF;" points="46.28,78.689 47.548,78.038 47.548,72.962 
		46.28,73.613 	"/>
	<path style="fill-rule:evenodd;clip-rule:evenodd;fill:#FFFFFF;" d="M44.422,78.04l1.244,0.646v-5.261
		c0-0.115,0.064-0.22,0.167-0.273l1.356-0.696l-1.216-0.639l-1.552,0.827V78.04z"/>
	<polygon style="fill-rule:evenodd;clip-rule:evenodd;fill:#FFFFFF;" points="56.026,73.454 57.295,72.803 57.295,67.727 
		56.026,68.377 	"/>
	<path style="fill-rule:evenodd;clip-rule:evenodd;fill:#FFFFFF;" d="M54.168,72.805l1.245,0.647V68.19
		c0-0.115,0.064-0.22,0.167-0.273l1.356-0.696l-1.215-0.639l-1.552,0.826V72.805z"/>
	<polygon style="fill-rule:evenodd;clip-rule:evenodd;fill:#FFFFFF;" points="43.771,77.31 57.729,70.031 57.729,58.25 
		43.771,65.529 	"/>
	<g>
		<polygon style="fill-rule:evenodd;clip-rule:evenodd;fill:#F4E77E;" points="38.819,72.745 38.814,72.745 38.814,72.735 		"/>
	</g>
	<g>
		<polygon style="fill-rule:evenodd;clip-rule:evenodd;fill:#F4E77E;" points="40.859,69.855 40.859,69.831 40.871,69.855 		"/>
	</g>
	<path style="fill-rule:evenodd;clip-rule:evenodd;fill:#FFFFFF;" d="M33.855,67.58v3.608l5.418,2.818v-3.501
		c0-0.116,0.065-0.221,0.168-0.273l1.279-0.651c0.016-0.008,0.033-0.016,0.051-0.02l0.732-0.384l-5.325-2.813L33.855,67.58z
		 M37.984,70.915v1.37l-1.23-0.64v-1.357L37.984,70.915z M36.222,69.974v1.37l-1.23-0.64v-1.357L36.222,69.974z"/>
	<path style="fill-rule:evenodd;clip-rule:evenodd;fill:#FFFFFF;" d="M36.849,64.113v1.584l1.358,0.708l0.52-0.268v-1.593
		l-1.343-0.706L36.849,64.113z M37.723,65.102v0.868l-0.724-0.386v-0.869L37.723,65.102z"/>
	<path style="fill:#FFFFFF;" d="M14.221,90.251l2.153,5.571h61.166l2.153-5.571H14.221z M19.855,92.6l-0.529-0.002l0.46,1.119
		l-0.827-0.001l-0.467-1.12l-0.555-0.002l-0.245-0.592l1.926,0.008L19.855,92.6z"/>
	<g>
		<path style="fill:none;stroke:#C2976A;stroke-linecap:round;stroke-linejoin:round;stroke-miterlimit:10;" d="M39.58,74.511"/>
	</g>
	<path style="fill-rule:evenodd;clip-rule:evenodd;fill:#FFFFFF;" d="M40.514,57.704l0.753,0.396
		c0.101,0.053,0.164,0.158,0.164,0.271v1.031l1.046-0.554c0.09-0.047,0.196-0.047,0.286-0.001l2.798,1.472
		c0.1,0.053,0.164,0.157,0.164,0.271v2.606c0,0.17-0.137,0.307-0.307,0.307c-0.169,0-0.307-0.137-0.307-0.307v-2.421l-2.491-1.31
		l-0.924,0.489v2.211l0.16,0.083l-0.001-0.891c0-0.101,0.05-0.196,0.133-0.253c0.084-0.058,0.19-0.071,0.284-0.033l1.255,0.488
		c0.122,0.047,0.2,0.167,0.195,0.297l-0.06,1.532c-0.006,0.165-0.142,0.295-0.306,0.295c-0.004,0-0.008,0-0.012,0
		c-0.169-0.007-0.301-0.15-0.294-0.319l0.052-1.314l-0.633-0.246l0.001,0.947c0,0.107-0.056,0.207-0.147,0.262
		c-0.092,0.057-0.206,0.06-0.301,0.01l-0.774-0.402c-0.101-0.053-0.165-0.158-0.165-0.272v-1.077
		c-0.149-0.021-0.265-0.143-0.265-0.298v-2.42l-2.491-1.31l-0.925,0.489v2.212l0.159,0.083l0.024-1.039
		c0.002-0.101,0.055-0.195,0.139-0.25c0.085-0.055,0.191-0.065,0.285-0.026l1.339,0.555c0.117,0.049,0.192,0.165,0.189,0.291
		c-0.009,0.345,0.003,0.914,0.036,1.691c0.007,0.169-0.124,0.313-0.293,0.32c-0.004,0-0.009,0-0.013,0
		c-0.163,0-0.299-0.129-0.306-0.293c-0.028-0.652-0.041-1.162-0.039-1.522l-0.734-0.304l-0.025,1.085
		c-0.003,0.106-0.059,0.203-0.151,0.257c-0.091,0.054-0.204,0.057-0.298,0.008l-0.76-0.398c-0.101-0.053-0.164-0.158-0.164-0.272
		v-0.484l-1.804,0.942l8.48,4.408l13.91-7.254l-8.446-4.43L40.514,57.704z"/>
	<path style="fill:#FFFFFF;" d="M13.985,89.025H79.93V45.241H13.985V89.025z M70.581,49.535v35.683H23.004V49.535H70.581z"/>
	<g>
		<path style="fill-rule:evenodd;clip-rule:evenodd;fill:#FFFFFF;" d="M34.627,66.484l1.409-0.737c0.063-0.033,0.133-0.034,0.2-0.02
			v-1.801c0-0.115,0.064-0.22,0.167-0.273l0.843-0.432c0.089-0.046,0.195-0.045,0.283,0.001l1.648,0.866
			c0.101,0.053,0.164,0.157,0.164,0.271v0.266l0.294-0.151c0.089-0.046,0.194-0.045,0.283,0.001l1.648,0.866
			c0.101,0.053,0.164,0.158,0.164,0.271v1.965c0,0.115-0.064,0.22-0.167,0.272l-0.638,0.328l1.38,0.729
			c0.007,0.004,0.011,0.012,0.018,0.017c0.034,0.021,0.062,0.048,0.085,0.08c0.008,0.011,0.015,0.021,0.022,0.032
			c0.023,0.043,0.039,0.09,0.039,0.142v3.981c0,0.015-0.006,0.028-0.009,0.043c-0.003,0.021-0.005,0.042-0.013,0.062
			c-0.007,0.019-0.018,0.035-0.028,0.052c-0.01,0.017-0.019,0.033-0.032,0.047c-0.014,0.016-0.032,0.027-0.049,0.04
			c-0.012,0.009-0.02,0.02-0.034,0.027l-2.581,1.351c-0.046,0.023-0.094,0.035-0.142,0.035h0c-0.049,0-0.097-0.011-0.141-0.035
			l-4.812-2.502v0.596l8.531,4.434V65.529l-8.531-4.434V66.484z"/>
	</g>
	<path style="fill-rule:evenodd;clip-rule:evenodd;fill:#FFFFFF;" d="M39.238,65.367v1.584l1.358,0.708l0.52-0.268v-1.593
		l-1.343-0.706L39.238,65.367z M40.111,66.356v0.868l-0.724-0.386V65.97L40.111,66.356z"/>
</g>
</svg>
