<?xml version="1.0" encoding="iso-8859-1"?>
<!-- Generator: Adobe Illustrator 17.0.0, SVG Export Plug-In . SVG Version: 6.00 Build 0)  -->
<!DOCTYPE svg PUBLIC "-//W3C//DTD SVG 1.1//EN" "http://www.w3.org/Graphics/SVG/1.1/DTD/svg11.dtd">
<svg version="1.1" id="Layer_1" xmlns="http://www.w3.org/2000/svg" xmlns:xlink="http://www.w3.org/1999/xlink" x="0px" y="0px"
	 width="150px" height="120px" viewBox="0 0 150 120" style="enable-background:new 0 0 150 120;" xml:space="preserve">
<g>
	<polygon style="fill:#FFFFFF;" points="110.447,71.006 77.129,90.242 77.129,91.786 110.447,72.55 	"/>
	<g>
		<polygon style="fill:#FFFFFF;" points="67.282,48.749 64.525,50.341 61.768,48.749 61.768,46.658 58.618,48.475 75.946,58.48 
			111.548,37.925 96.977,29.513 96.977,31.605 94.22,33.196 92.409,32.151 92.409,34.243 89.652,35.834 86.894,34.243 
			86.894,32.151 70.039,41.881 71.85,42.927 71.85,46.112 69.093,47.703 67.282,46.658 		"/>
		<polygon style="fill:#FFFFFF;" points="94.22,32.103 96.031,31.057 96.031,28.42 94.22,27.374 91.936,28.694 91.936,30.785 		"/>
		<polygon style="fill:#FFFFFF;" points="87.841,33.696 89.652,34.742 91.463,33.696 91.463,31.058 89.652,30.012 87.841,31.058 		
			"/>
		<polygon style="fill:#FFFFFF;" points="62.714,48.202 64.525,49.249 66.336,48.202 66.336,45.565 64.525,44.519 62.714,45.565 		
			"/>
		<polygon style="fill:#FFFFFF;" points="69.093,46.611 70.904,45.565 70.904,43.474 68.62,42.155 66.809,43.2 66.809,45.292 		"/>
	</g>
	<path style="fill:#FFFFFF;" d="M54.049,51.659v23.739l-6.853,3.956v4.183L69.093,96.18L75,92.769V59.572L57.672,49.569
		L54.049,51.659z M67.755,66.393L67.755,66.393v10.099l0,0l-5.544-3.201l-3.201-1.848V61.343L67.755,66.393z"/>
	<path style="fill:#FFFFFF;" d="M76.892,59.572v29.467l34.656-20.008V39.564L76.892,59.572z M82.407,82.125V60.119l23.626-13.641
		v22.006L82.407,82.125z"/>
	<polygon style="fill:#FFFFFF;" points="60.902,70.35 65.863,73.213 65.863,71.668 64.525,70.895 62.24,69.577 62.24,66.94 
		62.24,65.394 60.902,64.622 	"/>
	<g>
		<defs>
			<circle id="SVGID_1_" cx="75" cy="58.203" r="64.538"/>
		</defs>
		<clipPath id="SVGID_2_">
			<use xlink:href="#SVGID_1_"  style="overflow:visible;"/>
		</clipPath>
		<g style="clip-path:url(#SVGID_2_);">
			<path style="fill:#FFFFFF;" d="M78.131,37.357l-1.739,1.136l0.869-0.568l-0.868,0.57c-0.264-0.4-6.59-9.739-18.546-5.095
				c-6.015,2.336-7.511,6.88-9.241,12.14c-1.741,5.289-3.713,11.284-10.844,15.523c-10.952,6.511-31.747,7.295-46.245-2.79
				c-9.398-6.538-19.563-19.992-14.624-46.95l2.043,0.374c-4.738,25.873,4.872,38.681,13.768,44.87
				c13.82,9.614,33.598,8.893,43.997,2.711c6.462-3.842,8.226-9.202,9.931-14.387c1.737-5.278,3.533-10.735,10.463-13.427
				C70.648,26.198,78.058,37.245,78.131,37.357z"/>
		</g>
	</g>
</g>
</svg>
