<?xml version="1.0" encoding="iso-8859-1"?>
<!-- Generator: Adobe Illustrator 17.0.0, SVG Export Plug-In . SVG Version: 6.00 Build 0)  -->
<!DOCTYPE svg PUBLIC "-//W3C//DTD SVG 1.1//EN" "http://www.w3.org/Graphics/SVG/1.1/DTD/svg11.dtd">
<svg version="1.1" id="Layer_1" xmlns="http://www.w3.org/2000/svg" xmlns:xlink="http://www.w3.org/1999/xlink" x="0px" y="0px"
	 width="150px" height="120px" viewBox="0 0 150 120" style="enable-background:new 0 0 150 120;" xml:space="preserve">
<g>
	<path style="fill:#FFFFFF;" d="M20.553,85.832L9.69,90.909c0,2.557,0.823,4.631,3.379,4.631h112.103c2.558,0,3.38-2.074,3.38-4.631
		l-10.863-5.077H20.553z"/>
	<g>
		<g>
			<g>
				<g>
					<g>
						
							<rect x="128.457" y="52.14" transform="matrix(-0.9107 -0.413 0.413 -0.9107 233.4813 156.148)" style="fill:#FFFFFF;" width="10.317" height="1.405"/>
					</g>
					<g>
						<rect x="130.031" y="44.63" style="fill:#FFFFFF;" width="10.279" height="1.405"/>
					</g>
					<g>
						
							<rect x="132.771" y="32.664" transform="matrix(-0.4691 -0.8831 0.8831 -0.4691 162.687 173.4396)" style="fill:#FFFFFF;" width="1.405" height="10.317"/>
					</g>
				</g>
			</g>
		</g>
	</g>
	<path style="fill:#FFFFFF;" d="M52.281,44.63v2.302V70.45v0.644v2.565h32.624v-2.565V70.45V46.932V44.63v-4.104H52.281V44.63z
		 M83.761,46.932V70.45H60.187V46.932H83.761z M79.66,43.005h2.216v2.149H79.66H68.593v-2.149H79.66z M57.102,43.005v2.149h-2.216
		v-2.149H57.102z"/>
	<g>
		<rect x="62.173" y="48.743" style="fill:#FFFFFF;" width="10.279" height="1.405"/>
	</g>
	<g>
		<rect x="62.173" y="58.851" style="fill:#FFFFFF;" width="7.774" height="1.405"/>
	</g>
	<g>
		<rect x="62.172" y="52.112" style="fill:#FFFFFF;" width="15.548" height="1.405"/>
	</g>
	<g>
		<rect x="62.173" y="55.482" style="fill:#FFFFFF;" width="5.139" height="1.405"/>
	</g>
	<path style="fill:#FFFFFF;" d="M22.204,35.69v48.599h93.834V35.69c0-2.557-2.074-4.631-4.63-4.631H26.833
		C24.276,31.06,22.204,33.133,22.204,35.69z M111.398,35.175v45.81H26.846v-45.81H111.398z"/>
</g>
</svg>
